# xmcd
#
# Track frame offsets:
#	150
#	11971
#	26414
#	40631
#	52671
#	67337
#
# Disc length: 1085 seconds
#
# Revision: 0
# Processed by: cddbd v1.5.2PL0 Copyright (c) Steve Scherf et al.
# Submitted via: EasyCDDAExtractor 10.0.2.1
#
DISCID=46043b06
DTITLE=Barbara Caldwell - Open Your Heart
DYEAR=2006
DGENRE=Gospel
TTITLE0=He Is My Friend
TTITLE1=He'll Come If You Open Your Heart
TTITLE2=The Lord Put A Song In My Heart
TTITLE3=Soundtrack Of" He Is My Friend"
TTITLE4=Soundtrack Of "He'll Come In If You Open Your Heart
TTITLE5=Soundtrack Of"The Lord Put a Song In My Heart
EXTD=
EXTT0=
EXTT1=
EXTT2=
EXTT3=
EXTT4=
EXTT5=
PLAYORDER=
